/* XPM */
static char *graphic[] = {
/* width height num_colors chars_per_pixel */
"32 32 409 2", 
/* colors */
"   c None",
".  c #FCDB29",
"X  c #FAC82F",
"o  c #F9C431",
"O  c #E5C82B",
"+  c #FCDD2B",
"@  c #FBD92D",
"#  c #F0D62B",
"$  c #CFCF27",
"%  c #FEF227",
"&  c #B8C525",
"*  c #FFFB24",
"=  c None",
"-  c #FEE326",
";  c #FDDF28",
":  c #8BAC23",
">  c #EFC52E",
",  c #E6D526",
"<  c #FAD32E",
"1  c #E2BA30",
"2  c #F1EE25",
"3  c #CDBA2C",
"4  c #FFED2A",
"5  c #C4CC26",
"6  c #ACB328",
"7  c #FCD929",
"8  c #A0AC28",
"9  c #9DBB22",
"0  c #D0DE24",
"q  c #F9C231",
"w  c #F8BE33",
"e  c #80A922",
"r  c #8CBB20",
"t  c #FBD72D",
"y  c #D8BB2D",
"u  c #FEF027",
"i  c #FDEC29",
"p  c #B9C723",
"a  c #FFED2B",
"s  c #D1E223",
"d  c #FDDD28",
"f  c #FFF043",
"g  c #89AB23",
"h  c None",
"j  c #F9C232",
"k  c None",
"l  c #FFFB26",
"z  c #FAD12E",
"x  c #9DC621",
"c  c None",
"v  c None",
"b  c #B7D621",
"n  c #D8BB2E",
"m  c #FCE62A",
"M  c #E4CD2C",
"N  c #D0DC24",
"B  c #FEEA23",
"V  c #C9D62D",
"C  c #FBD32B",
"Z  c #BFD124",
"A  c #E3BC2F",
"S  c #FFEA24",
"D  c #D9C829",
"F  c #F8C132",
"G  c #F1D82B",
"H  c #FFF03B",
"J  c #FDEA29",
"K  c #FEF925",
"L  c #FFEC26",
"P  c #FFFB25",
"I  c #B7BD27",
"U  c #FDDB28",
"Y  c #FCD72A",
"T  c #FEEA24",
"R  c #C8DE23",
"E  c #FBD32C",
"W  c #F9C032",
"Q  c #B3D321",
"!  c #A5C223",
"~  c None",
"^  c #FFEE2C",
"/  c #D8B92E",
"(  c #FCE42A",
")  c #FEEE28",
"_  c #BAC922",
"`  c #C4C826",
"'  c #FBD12C",
"]  c #E7E426",
"[  c #EBF024",
"{  c #FEF926",
"}  c #C3C428",
"|  c #FFF03C",
" . c #FFEA23",
".. c #C6DD22",
"X. c #FDE829",
"o. c #E5CF2B",
"O. c #B9C323",
"+. c #B8BF25",
"@. c #FACD2E",
"#. c #B8C822",
"$. c #B8C127",
"%. c #FEE824",
"&. c #FBD12C",
"*. c #B8D521",
"=. c #FFF03D",
"-. c #FACD2E",
";. c #FFFB25",
":. c #FCE22A",
">. c #FEF726",
",. c #A2B922",
"<. c #B5C524",
"1. c #F8C132",
"2. c #FCD52B",
"3. c #FBD12D",
"4. c #F8C331",
"5. c #E7DE23",
"6. c #FFF03E",
"7. c #80AE20",
"8. c #B2C721",
"9. c #FFFB25",
"0. c #B7B927",
"q. c #FFFB25",
"w. c #FFEF32",
"e. c #FDE72A",
"r. c #C4D125",
"t. c #FACB2E",
"y. c #F9C730",
"u. c #E6CF28",
"i. c #F9C62F",
"p. c #E5CB2A",
"a. c #FACD30",
"s. c #F8C62F",
"d. c #53A01D",
"f. c #FEF526",
"g. c #B8BD26",
"h. c #ABBB24",
"j. c #FFEA23",
"k. c None",
"l. c #C5D524",
"z. c #FEE625",
"x. c #C2DB22",
"c. c #FBCF2D",
"v. c #FDE227",
"b. c #FFEC25",
"n. c #F9C731",
"m. c #E3C12D",
"M. c #FFF040",
"N. c #FCE02B",
"B. c #EFCA2F",
"V. c #5EA11E",
"C. c #E4C72D",
"Z. c #FDE027",
"A. c #FFF248",
"S. c #A1B325",
"D. c #E7EB25",
"F. c None",
"G. c #F9C530",
"H. c #E8E022",
"J. c #F1D02A",
"K. c None",
"L. c #FFFC26",
"P. c #E7DC24",
"I. c #F8C132",
"U. c #FFF041",
"Y. c #FACB30",
"T. c #FFEC26",
"R. c #FBDA2C",
"E. c #E3C12E",
"W. c #D8BE2C",
"Q. c #D7BA2E",
"!. c #5EA11F",
"~. c #539E1D",
"^. c #FEE426",
"/. c #ABB028",
"(. c #E8EF24",
"). c #DEE724",
"_. c #A8C729",
"`. c #FDE027",
"'. c #C0DA22",
"]. c #D0E124",
"[. c #FAC92F",
"{. c #95AC26",
"}. c #FFEF35",
"|. c #F9C531",
" X c #E2BB2F",
".X c #D1D621",
"XX c #FCDE2B",
"oX c #EFC82F",
"OX c #D0D223",
"+X c #FFEC27",
"@X c #FEE028",
"#X c #FEF327",
"$X c #489B1C",
"%X c #B8BB27",
"&X c #CFD027",
"*X c #A0AD27",
"=X c #FEE426",
"-X c #FFEF37",
";X c #FFFA26",
":X c #F8BF32",
">X c #96B025",
",X c #FDE028",
"<X c #EFC62E",
"1X c #7FA623",
"2X c #FFEF36",
"3X c #FBCC2D",
"4X c #E3BF2E",
"5X c #FAD42E",
"6X c #EFD12C",
"7X c #6AA61F",
"8X c #CEBF2A",
"9X c #E6D828",
"0X c #D4E423",
"qX c #FDED28",
"wX c #B7B528",
"eX c #C2C328",
"rX c #F9C132",
"tX c #E7E926",
"yX c #A1B126",
"uX c #9AB722",
"iX c #FAC72F",
"pX c #FCDA29",
"aX c #F9C331",
"sX c #87AD22",
"dX c #F8BF33",
"fX c #80AA22",
"gX c #96C420",
"hX c #FBD82D",
"jX c #CCB52D",
"kX c None",
"lX c #FCE729",
"zX c #D7B82F",
"xX c #FEF127",
"cX c #BACC21",
"vX c None",
"bX c #D1C42B",
"nX c #D1E323",
"mX c #C3C727",
"MX c #D1D825",
"NX c #D1E323",
"BX c #FDDE28",
"VX c #E6D426",
"CX c #FFF24C",
"ZX c #E3BD2E",
"AX c #EEC030",
"SX c #FFF249",
"DX c #FAD22E",
"FX c #CEBD2A",
"GX c #FCDC2C",
"HX c #D0D024",
"JX c #E5D22A",
"KX c #FCE72A",
"LX c #B8C224",
"PX c #ABC022",
"IX c #E7E726",
"UX c #FFEE2D",
"YX c #98AD26",
"TX c #BACE24",
"RX c #FFEE2C",
"EX c None",
"WX c #FEDC28",
"QX c #FBD62D",
"!X c #FFF24A",
"~X c #EFCF2D",
"^X c #D0BC2B",
"/X c #E6E127",
"(X c #FFF038",
")X c #B2C323",
"_X c #BCD023",
"`X c #C8D425",
"'X c #FDDC28",
"]X c #C5DA23",
"[X c #FEDE28",
"{X c #FCD82A",
"}X c #F9C132",
"|X c #FDDD27",
" o c #FCD929",
".o c #86BB1F",
"Xo c #CFCA26",
"oo c #FFF147",
"Oo c #FFFC25",
"+o c #FCE52A",
"@o c #C4B52C",
"#o c #FEEF28",
"$o c #BACA22",
"%o c #FBDB2D",
"&o c #FACE2D",
"*o c #FACE30",
"=o c #BAD722",
"-o c #E6D227",
";o c #8FBD20",
":o c #FFEE2E",
">o c #FAD02F",
",o c #D0CE25",
"<o c #CDB72D",
"1o c #FDE929",
"2o c #B9C423",
"3o c #B8C025",
"4o c #BFBA29",
"5o c #B2C123",
"6o c #C2BF29",
"7o c #FCD62B",
"8o c #D4E423",
"9o c #A9B627",
"0o c #FCD62A",
"qo c #FEE924",
"wo c #FBD22C",
"eo c #FACE2E",
"ro c #ACCF21",
"to c #EBC92E",
"yo c #FFEE2F",
"uo c None",
"io c #EFCD2E",
"po c #CEC428",
"ao c #FCE32A",
"so c None",
"do c #C2BD28",
"fo c #E6D42A",
"go c None",
"ho c #FEF826",
"jo c #FCD62B",
"ko c #FACE2F",
"lo c #D0CC25",
"zo c #B7BA27",
"xo c #FEE725",
"co c None",
"vo c #DEEA23",
"bo c #FEE724",
"no c #B6D521",
"mo c #FACC2E",
"Mo c None",
"No c #FCE12A",
"Bo c #EFCB2E",
"Vo c #D0D522",
"Co c None",
"Zo c #FFEE31",
"Ao c None",
"So c #FEF626",
"Do c #D4DC36",
"Fo c #A0B026",
"Go c #FFEB23",
"Ho c #B1C624",
"Jo c #FCD42B",
"Ko c #FEE725",
"Lo c #96B324",
"Po c #FBD02D",
"Io c None",
"Uo c #EFC92D",
"Yo c #FFF34D",
"To c #F9C831",
"Ro c #B6C226",
"Eo c #FACD2E",
"Wo c #CFC627",
"Qo c #5EA21E",
"!o c #CEC229",
"~o c #B7B827",
"^o c #FFFA25",
"/o c #DEE823",
"(o c #FACA2E",
")o c #8EB321",
"_o c #95AD25",
"`o c #FFEB24",
"'o c #FFFB26",
"]o c #F9C630",
"[o c #BDD823",
"{o c #F8C232",
"}o c #E4C62C",
"|o c #FACC30",
" O c #E6D926",
".O c #74A621",
"XO c #FBDB2C",
"oO c #F0F324",
"OO c #D7BB2E",
"+O c #FEF426",
"@O c #D2D626",
"#O c #97B522",
"$O c #FEE525",
"%O c #FDE127",
"&O c #88B420",
"*O c #FEE327",
"=O c #F9C631",
"-O c #E3C02D",
";O c #EEC32F",
":O c #FFEC24",
">O c #FCDF2B",
",O c #CDBC2B",
"<O c None",
"1O c #B8BC27",
"2O c #FCDB28",
"3O c #F9C430",
"4O c #FEE526",
"5O c #98B025",
"6O c #F8C032",
"7O c #80AB21",
"8O c #A6CC21",
"9O c #FACA30",
"0O c #E4C42C",
"qO c #E6D726",
"wO c #FCD32B",
"eO c #FDEE28",
"rO c #EEC330",
"tO c #CEC02A",
"yO c #5EA01F",
"uO c #BACD20",
"iO c #FDEE28",
"pO c #B7B628",
"aO c #E8E326",
"sO c #FAC82F",
"dO c #F4F524",
/* pixels */
"                      v [ 0XP ;.;.P l L.v                       ",
"                so;X;.q.(.NXq.q.q.q.q.q.q.;.;Xk.                ",
"              e.eO+OK q.(.NXq.q.q.q.q.q.q.q.q.9.'o              ",
"          Co%oN.KXqX#X{ vo'.(.(.(.8o(.(.voq.q.q.q.* so          ",
"        Ao*o5XR.N.m qX#X).8O......gX....noR q.q.q.q.OoEX        ",
"      vXrXn.a.< @ >O+oi IX].q.q.q.q.q.q.(.NXq.q.q.q.q.Ooso      ",
"      F w 6O=OB.< @ >O+o/XN >.q.q.q.q.q.(.NXq.q.q.q.q.q.oO      ",
"    i.aX}Xw @og 9oI $.& Ho`XxX>.q.q.q.q.(.NXq.q.q.q.q.q.(.b     ",
"  h sO]oaX}XjX X|.Y.z } ` 5 r.l.]Xq.q.q.(.8O=o=o=o.ox.q.(.nXk.  ",
"  Eot.[.]oo <o1 :X|.Y.LoQo$X$Xd.r So^oq.(.NXq.q.q...dOq.(.NX;X  ",
"  ' eomo[.y.3 A dX:Xo 9Oio$X$X&X1o#of.^o(.NXq.q.q...dOq.(.NX;.  ",
"kXE 3.sXUo[.,O4Xj dX:XaX9O$X$XG NoX.) +O/o'.q.q.q...dOq.(.NXq.v ",
" o0oC g.&omoFXm.3Oq :X:X4.$X$X6XXONolXiOtX[oq.q.q...dOq.(.NXq.L.",
"WX7 0o+.&.c.tO0OiXG.q W dX$X$XBo5XR.N.KXqX#X{ q.q...dOq.(.NXq.l ",
"[XU 7 3oJo&.!o}o(oiXFoyOyO$X$X!.V.Qo# N.m qX#Xhoq...dOq.(.NXq.P ",
"Z.BX'XLXY JopoO -.(o> -OZX$X$XQ.E.C.~X@ >O+oi % ho..dOq.(.NXq.;.",
"^.%O; 2opXY Wop.Po-.8XyXFo$X$X8 /.6 |o< @ >O+o/X;ox Q =oro*.q.;.",
"8._ p 9 2o)o#Oh.g.PodoS.yX$X$X{.8 *XrO|oDXhXXX( /XxX>.q.vo'.q.P ",
"S z.=X%O; VXXou.2.woPo-.t.$X$XAX}Xw 6O|.oXz t + aoJ u So8o8Oq.l ",
":Oqoz.=X%O; lo-o{X2.E Poeo$X$X;Oo }XdX:X_o>Xz t + ao1ou D.s q.L.",
"<Ob.qoKo=Xv.,o, . {XjoE 3.$X$X<Xy.o }XdX1X_o9O>oQXGX:.1o] 0 ^ov ",
"  UXb.T Ko4OHXqOd . {XjoD $X$XUo[.y.o n $X*XaX4obXo.fo9X@OZ 2   ",
"  (X:oT.B boOX O,Xd 2O,.7X$X$X7OfXe .O~.$X*X:XYX5O6oeXmX<.! _X  ",
"  = H yo+Xj.VoP.- `.BXO.LX3o+.g.%Xzo~opOwXZXW zXOOToko5XJX$ k   ",
"    oo| Zo+X.X5.$O- `.BXU 7 0oJo&.c.mo(oiXG.q / zX{oTokoM Ro    ",
"      A.=.w.MXH.%.$O- `.BX'XuXY J.woc.-.(oX G.y / w I.n.touo    ",
"      F.SX6.V aOGoqoz.=X%O; 5opX3o2.woPo-.t.X W.y }Xw 1.~       ",
"        K.!XDo_.TXuOcX$o_ p )X2o7.3o+.g.1Ozo0.: ^XaXrXc         ",
"          IoCXM.}.4 `oqoz.=X%O; 2opXY 2.woPo-.t.> s.~           ",
"              YoU.2Xa `oqoz.=X%OPXd pX{X2.E Po@.3X              ",
"                F.f -XRXb.T Ko=X&O; d . {X7owOgo                ",
"                      Mo^ L  .xo#.*O@X|Xco                      "
};
