/* XPM */
static char *graphic[] = {
/* width height num_colors chars_per_pixel */
"16 16 175 2", 
/* colors */
"   c None",
".  c #FDDF27",
"X  c #A1B226",
"o  c #FFE925",
"O  c #F9C431",
"+  c #FEE825",
"@  c #E2BA2F",
"#  c #DCD823",
"$  c #DBD425",
"%  c #F0D62B",
"&  c #FBD92D",
"*  c #FEF227",
"=  c #D4DB2E",
"-  c #FFFB25",
";  c #FAC830",
":  c #E3BE2E",
">  c None",
",  c #FFFB25",
"<  c #FFF626",
"1  c #CADF22",
"2  c #DBD225",
"3  c #FBD72D",
"4  c #D3E223",
"5  c #C8C825",
"6  c #DDE923",
"7  c #FAC630",
"8  c None",
"9  c #EECA2E",
"0  c #F3ED26",
"q  c #C5CC24",
"w  c None",
"e  c #D9C829",
"r  c #FBD32C",
"t  c None",
"y  c #F0D22C",
"u  c #FCE42A",
"i  c None",
"p  c #D4E322",
"a  c #FDDB29",
"s  c #D9C82B",
"d  c #8BB121",
"f  c #FACD2E",
"g  c #FDE82A",
"h  c None",
"j  c #D1DE24",
"k  c #FCD52B",
"l  c #F8C830",
"z  c #DBCE27",
"x  c #FEEC29",
"c  c #C8BB2B",
"v  c #FFFB25",
"b  c #D4E123",
"n  c #FCD82A",
"m  c #FDE62A",
"M  c #A0AF26",
"N  c #FEE625",
"B  c #C2DB22",
"V  c #96B224",
"C  c #DABF2D",
"Z  c #D9C42B",
"A  c #A1B325",
"S  c #95AC25",
"D  c #D9D424",
"F  c #F0CC2C",
"G  c #F8C132",
"H  c #80AC21",
"J  c #74A521",
"K  c None",
"L  c #C8CD26",
"P  c #E8EF24",
"I  c None",
"U  c #96B024",
"Y  c #FDE027",
"T  c #FAC92F",
"R  c #8AA924",
"E  c #F9C531",
"W  c #FDDE28",
"Q  c #69A220",
"!  c #D9B92F",
"~  c #FEE426",
"^  c None",
"/  c #F8BF32",
"(  c #FFEF36",
")  c #E4C52E",
"_  c #C1C624",
"`  c #B7B528",
"'  c #BFC724",
"]  c #ACBD24",
"[  c #E0E923",
"{  c #F9C331",
"}  c #DCD723",
"|  c #D9C02B",
" . c #D8BC2D",
".. c #DAD129",
"X. c #C7BC2B",
"o. c #96AE25",
"O. c #FAC730",
"+. c #EEC030",
"@. c #FCDD28",
"#. c #D9C928",
"$. c #FBD42B",
"%. c #F9C131",
"&. c #97BD22",
"*. c #DACD27",
"=. c #DDDB23",
"-. c #E9EF23",
";. c #DDE823",
":. c #C8D425",
">. c #FDDC28",
",. c #FCD82A",
"<. c #96B723",
"1. c #FEEF28",
"2. c #D4E422",
"3. c #C1DA22",
"4. c #FACE2D",
"5. c #F8C032",
"6. c #FFFC25",
"7. c #8BB422",
"8. c #D2CD25",
"9. c #FFEB27",
"0. c #C7C329",
"q. c #D4E423",
"w. c #FCD62A",
"e. c #FBD22C",
"r. c #DBCF26",
"t. c #FBD42E",
"y. c #FEE725",
"u. c #FEED28",
"i. c None",
"p. c #F1D329",
"a. c #E4C82B",
"s. c None",
"d. c #E5CE2B",
"f. c None",
"g. c #FCE32B",
"h. c #CDC02B",
"j. c #96B323",
"k. c #FACC2E",
"l. c #F9C830",
"z. c #D9C52A",
"x. c None",
"c. c #FDE72A",
"v. c #BFC126",
"b. c #FFEE31",
"n. c None",
"m. c #FBD02D",
"M. c None",
"N. c None",
"B. c #FFFA25",
"V. c #FFEE32",
"C. c #FBDB2C",
"Z. c #F1DE2A",
"A. c None",
"S. c #B7B828",
"D. c #A0AE26",
"F. c #FEE525",
"G. c #F8C031",
"H. c #A1B426",
"J. c #BDC126",
"K. c #FDE127",
"L. c #FACA2F",
"P. c #FFEB25",
"I. c #F9C631",
"U. c #FCDF2B",
"Y. c #FEF427",
"T. c #D3DA25",
"R. c #C1D423",
"E. c None",
"W. c #F8C032",
"Q. c #74A421",
"!. c #FFF149",
"~. c #D7B92E",
"^. c #FFF826",
"/. c #F4F524",
"(. c #E8EE24",
/* pixels */
"        ^ f.[ 6.6.- f.^         ",
"      E.u.^.2./././.v v x.      ",
"    l t.U.x b 6 1 6 3.v v ,     ",
"  i./ C 0...:.< v v 6 v v v 4   ",
"h ; { ~.I.s 7.&.j B.q.6 B -.6 ^ ",
"t a.T  .W.E V <.g Y.;.v P /.6 f.",
"n #.4.| O G.M V C.c.0 B.P /.6 - ",
"W *.$.z.L.` Q.J H.% m * (./.6 6.",
"D ' 5 v.F S.J Q D.9 & u R.;.1 6.",
"+ ~ . z k m.X o.%.G h.3 g.1.p - ",
"s.o ~ 2 a w.j.U 7 +.R ) y Z.T.N.",
"A.b.o } Y r.d H A o.S ! X.d.L I ",
"  8 V.=.F.Y >.p.e.k.O.+.@ l.J.  ",
"    !.= =.# $ _ ] e Z c : 5.    ",
"      i ( P.N K.8.,.r f w       ",
"        K > 9.y.q @.n.M.        "
};
