/* XPM */
static char *graphic[] = {
/* width height num_colors chars_per_pixel */
"64 64 669 2", 
/* colors */
"   c None",
".  c #96AF24",
"X  c #FDDF27",
"o  c #C0D922",
"O  c #95AB26",
"+  c #FAC82F",
"@  c #FCDB29",
"#  c #FEE127",
"$  c #F9C431",
"%  c #A3C722",
"&  c #F8C033",
"*  c #DCD823",
"=  c #75A820",
"-  c #EFC72F",
";  c #D9C12B",
":  c #E4C42D",
">  c #DBD425",
",  c #FFFB25",
"<  c #FBD92D",
"1  c #75B31E",
"2  c #D8BD2D",
"3  c None",
"4  c #66A71E",
"5  c #D7B92F",
"6  c #FEF227",
"7  c #FFED29",
"8  c #CFCF27",
"9  c #ACB327",
"0  c #66A920",
"q  c #FACD2D",
"w  c #CECB29",
"e  c #FFF144",
"r  c #FEE326",
"t  c #FDE227",
"y  c #F8BE32",
"u  c #FFE526",
"i  c #FDDF28",
"p  c #EFC52E",
"a  c #EEC130",
"s  c #E3BE2E",
"d  c #DDDC22",
"f  c #E2BA30",
"g  c #6AA51F",
"h  c #FCDD2C",
"j  c #D9C12C",
"k  c #FEE126",
"l  c #56A01D",
"z  c #C2B72A",
"x  c None",
"c  c #FFFB24",
"v  c #FFF626",
"b  c #C6B72C",
"n  c #F4F324",
"m  c #F3EF26",
"M  c None",
"N  c #FFED2A",
"B  c #D0DE24",
"V  c #FCD929",
"C  c #A0AC28",
"Z  c #FFF145",
"A  c #F9C231",
"S  c #A1BB24",
"D  c #FCD52B",
"F  c #F8BE33",
"G  c #80A922",
"H  c #FFEF33",
"J  c #FFFB25",
"K  c #E4C22D",
"L  c #97BE22",
"P  c None",
"I  c None",
"U  c #FBD72D",
"Y  c #D8BB2D",
"T  c #DACE27",
"R  c None",
"E  c #5FA21E",
"W  c #D7B72F",
"Q  c #FEF027",
"!  c #FDEC29",
"~  c None",
"^  c #CEC929",
"/  c #DDE923",
"(  c #FEE126",
")  c #FFED2B",
"_  c #FDDD28",
"`  c #FCD92A",
"'  c #A2BF23",
"]  c #FFF146",
"[  c None",
"{  c #F9C232",
"}  c #DDDA22",
"|  c #75A621",
" . c #8DBF1F",
".. c #EDBB32",
"X. c #D9C828",
"o. c None",
"O. c #FFFB25",
"+. c #81B81F",
"@. c #D9BF2C",
"#. c #CFCB26",
"$. c #FEE625",
"%. c #D8BB2E",
"&. c #C4C824",
"*. c #5BA21D",
"=. c #C4CA26",
"-. c #ACB128",
";. c #CFCD28",
":. c #DDDE26",
">. c None",
",. c #FFEF33",
"<. c #FBD32B",
"1. c #FFF350",
"2. c #B3CA24",
"3. c #AEC624",
"4. c None",
"5. c None",
"6. c #DACC27",
"7. c #FAD12F",
"8. c #5DA11E",
"9. c #C0C823",
"0. c #FFEA24",
"q. c #FDEA29",
"w. c #E5D12B",
"e. c #CDB82D",
"r. c #C2B52B",
"t. c None",
"y. c #CEC729",
"u. c #FFFB25",
"i. c #98BE1F",
"p. c #FCD72A",
"a. c #97BA21",
"s. c None",
"d. c #F9C032",
"f. c #FBD32C",
"g. c #96B623",
"h. c #8BB321",
"j. c #FFF040",
"k. c #FDDC28",
"l. c None",
"z. c None",
"x. c #81B61F",
"c. c #DBD026",
"v. c #FBD52E",
"b. c #66A31F",
"n. c #EFCE2E",
"m. c #59A11D",
"M. c #FEEE28",
"N. c #E6D52A",
"B. c #529E1D",
"V. c None",
"C. c #FFF34C",
"Z. c None",
"A. c #A2BB22",
"S. c #FFEC28",
"D. c None",
"F. c #A1B724",
"G. c #FFF03C",
"H. c #C6DD22",
"J. c #FACD2D",
"K. c #F1D429",
"L. c #E5CD29",
"P. c #75AD1E",
"I. c #FACF2F",
"U. c #76B31E",
"Y. c #FFFB25",
"T. c #6FB01E",
"R. c #FDE829",
"E. c #E5CF2B",
"W. c #CFC927",
"Q. c #6AAC1E",
"!. c None",
"~. c #FAC92F",
"^. c #DBDD27",
"/. c #FCD52A",
"(. c #FEE824",
"). c #97B821",
"_. c #FBD12C",
"`. c #FFF03D",
"'. c #8AAD23",
"]. c #EFCA2C",
"[. c #97BA23",
"{. c #F9C930",
"}. c #83AA23",
"|. c #FBD32E",
" X c #80B021",
".X c #DACA28",
"XX c #9EC821",
"oX c #6AAA1D",
"OX c #FFFB25",
"+X c None",
"@X c None",
"#X c #CEC328",
"$X c #74A921",
"%X c #D9C62A",
"&X c None",
"*X c #5CA41D",
"=X c #61A81D",
"-X c #57A01D",
";X c #C2BC28",
":X c None",
">X c #FFEF31",
",X c #CEC52A",
"<X c #A1B524",
"1X c #98BC20",
"2X c #FCD52B",
"3X c #B0CC22",
"4X c #A3CA20",
"5X c #80AE20",
"6X c #FFF03E",
"7X c #FFF041",
"8X c #FACD2F",
"9X c #E4C72B",
"0X c #74A720",
"qX c #F9C931",
"wX c #81B420",
"eX c #FDE629",
"rX c None",
"tX c None",
"yX c #CFC727",
"uX c #F0D02D",
"iX c #6AAA1E",
"pX c #FCE22B",
"aX c None",
"sX c #FEE625",
"dX c #FFFB25",
"fX c #FFEF32",
"gX c #B8BF27",
"hX c #A2B923",
"jX c #96B223",
"kX c None",
"lX c #FFF247",
"zX c #FACB2E",
"xX c #95AE25",
"cX c #FFEC24",
"vX c #AFD121",
"bX c #E6CF28",
"nX c #80AE21",
"mX c #8BB123",
"MX c None",
"NX c #75AB1F",
"BX c #EFCA2E",
"VX c #74A721",
"CX c #D9C42A",
"ZX c #83B321",
"AX c #7BB51F",
"SX c #FDE62A",
"DX c #5FA71D",
"FX c #BEC524",
"GX c #53A01D",
"HX c #FEF526",
"JX c #CEC32A",
"KX c #FFEA23",
"LX c #98BA20",
"PX c #FFEF33",
"IX c #C9DE22",
"UX c #FEE625",
"YX c #97B622",
"TX c #C2DB22",
"RX c None",
"EX c #FBCF2D",
"WX c #96B224",
"QX c #EFC82D",
"!X c #7FA822",
"~X c #FFEC25",
"^X c #F9C731",
"/X c #81B220",
"(X c None",
")X c #E3C12D",
"_X c #6AA81E",
"`X c #D4DA2A",
"'X c #FFF040",
"]X c #FCE02B",
"[X c #D9C42B",
"{X c #D4C02B",
"}X c #FFED25",
"|X c #D8C02D",
" o c #C2BA29",
".o c #FFF925",
"Xo c #FEF527",
"oo c #A5BC23",
"Oo c #FFF247",
"+o c #95AC25",
"@o c None",
"#o c #FFEA24",
"$o c #FFEF34",
"%o c #F9C530",
"&o c #F0CC2C",
"*o c #80AC21",
"=o c #FCDE2C",
"-o c #FACB30",
";o c #74A521",
":o c #E4C52C",
">o c #FFEC26",
",o c None",
"<o c #CEE023",
"1o c #EEC430",
"2o c #D8BE2C",
"3o c #F8C232",
"4o c #FDE42A",
"5o c #6FAC1F",
"6o c #FFF041",
"7o c #93B423",
"8o c #539E1D",
"9o c #D9CF2A",
"0o c #ABB028",
"qo c #D0D626",
"wo c #FEE425",
"eo c #96B024",
"ro c #FDE027",
"to c #95AC26",
"yo c #FAC92F",
"uo c #FFEF35",
"io c #F9C531",
"po c None",
"ao c None",
"so c #98C520",
"do c #80AC22",
"fo c #75A920",
"go c #A3C822",
"ho c #DCD923",
"jo c None",
"ko c #FCD62B",
"lo c #D9C22B",
"zo c #E4C52D",
"xo c #70B01E",
"co c #FBDA2D",
"vo c #4F9E1C",
"bo c #C1B42B",
"no c #FEF327",
"mo c #489B1C",
"Mo c #ABB029",
"No c #FAC730",
"Bo c #97B423",
"Vo c #FEE426",
"Co c #FFFC25",
"Zo c #F8BF32",
"Ao c #FFF13D",
"So c #FFEF36",
"Do c #EEC230",
"Fo c #8BB821",
"Go c #DDDD22",
"Ho c #D7B82E",
"Jo c #EDBE32",
"Ko c #6AA61F",
"Lo c #FFF24F",
"Po c #FCDE2C",
"Io c #D9C22C",
"Uo c #5E9F1F",
"Yo c #FFFA25",
"To c #FFF726",
"Ro c #B6B12A",
"Eo c #C1B42C",
"Wo c #ADB826",
"Qo c #FFEB24",
"!o c #F9C831",
"~o c #95AA26",
"^o c #FAC72F",
"/o c #FCDA29",
"(o c #FFF247",
")o c #F9C331",
"_o c None",
"`o c #F8BF33",
"'o c #A3C622",
"]o c #DCD723",
"[o c #80AA22",
"{o c #DECD27",
"}o c #F9ED3E",
"|o c None",
" O c #FEED28",
".O c #D9C02B",
"XO c #FFE925",
"oO c #DBD325",
"OO c #FFEF37",
"+O c #FBD82D",
"@O c #D8BC2D",
"#O c #66A61E",
"$O c #DACF27",
"%O c #6EAF1E",
"&O c #5FA31E",
"*O c #FFFC26",
"=O c #FEF127",
"-O c #E6D829",
";O c #FCDF28",
":O c #CFCE27",
">O c #ABAE29",
",O c #D6C62B",
"<O c None",
"1O c #FEE226",
"2O c #D1E323",
"3O c #AEC723",
"4O c #FBD02C",
"5O c #FDDE28",
"6O c #8FB421",
"7O c #FAC730",
"8O c #FFF246",
"9O c #F9C332",
"0O c #A9CE21",
"qO c #EEC030",
"wO c #E3BD2E",
"eO c #FDE929",
"rO c #FAD22E",
"tO c #88BC1F",
"yO c #70AC1E",
"uO c #FCDC2C",
"iO c #FFEF3B",
"pO c #FFEF38",
"aO c #60A71D",
"sO c #C2B62A",
"dO c #FFF526",
"fO c #DCD926",
"gO c #C1B22C",
"hO c #FFF24D",
"jO c #ACB228",
"kO c #F9C131",
"lO c #FBD42B",
"zO c #FFEE2C",
"xO c #F5D529",
"cO c #A3C422",
"vO c #F8BD33",
"bO c #90AF24",
"nO c None",
"mO c #E4C12D",
"MO c #FBD62D",
"NO c #80B320",
"BO c #FFFA24",
"VO c #EEC031",
"CO c #DACD27",
"ZO c None",
"AO c #FAD22F",
"SO c #CEC627",
"DO c #64A51E",
"FO c #E6D629",
"GO c #FFEF39",
"HO c #FDEB29",
"JO c #C2B62B",
"KO c #E9EF23",
"LO c #CEC829",
"PO c #D0D227",
"IO c None",
"UO c #FDDC28",
"YO c #94AD25",
"TO c #FCD82A",
"RO c #F9C132",
"EO c #FCE12B",
"WO c #FFEE2D",
"QO c #9DC521",
"!O c #DCD524",
"~O c #C1DB21",
"^O c None",
"/O c #86BB1F",
"(O c #EEC92E",
")O c #81B71F",
"_O c #DBD126",
"`O c #FFF248",
"'O c #7FB81F",
"]O c #D8BA2E",
"[O c None",
"{O c None",
"}O c #FEEF28",
"|O c #F9CD30",
" + c None",
".+ c #FFEF3A",
"X+ c #ACB028",
"o+ c #CFCC28",
"O+ c #D4E422",
"++ c #D0DB24",
"@+ c #A2BC22",
"#+ c None",
"$+ c #D1E124",
"%+ c #FACE2D",
"&+ c #A2BE24",
"*+ c #F1D529",
"=+ c #FFEE2E",
"-+ c #92C220",
";+ c #FAD02F",
":+ c #D9C729",
">+ c #FCDB29",
",+ c #D0CE25",
"<+ c #FFF249",
"1+ c #FDE929",
"2+ c #CDB72D",
"3+ c #6AAD1E",
"4+ c #FFEF3B",
"5+ c #F8BE32",
"6+ c #F9C431",
"7+ c None",
"8+ c #98BD1F",
"9+ c #9EBC21",
"0+ c #FCD62A",
"q+ c #FEE924",
"w+ c #97B921",
"e+ c #FBD22C",
"r+ c #96B523",
"t+ c #98BF21",
"y+ c None",
"u+ c #FFFA25",
"i+ c #FBD42E",
"p+ c #80B121",
"a+ c None",
"s+ c #FFEE2F",
"d+ c #FEE325",
"f+ c #CEC428",
"g+ c #FCE32A",
"h+ c #71AC1E",
"j+ c #C3C126",
"k+ c #FEED28",
"l+ c None",
"z+ c #E6D42A",
"x+ c #C2BD28",
"c+ c #FFF24A",
"v+ c #A2BA22",
"b+ c #CEC62A",
"n+ c #7EB423",
"m+ c None",
"M+ c #F8C231",
"N+ c #A1B624",
"B+ c #FDDD28",
"V+ c #FFEF3C",
"C+ c #A2BC24",
"Z+ c #A3CB20",
"A+ c #D4E025",
"S+ c #80AF20",
"D+ c #FACE2F",
"F+ c #81B520",
"G+ c #D0CC25",
"H+ c #FDE729",
"J+ c #6FAF1E",
"K+ c #CFC827",
"L+ c #FFEE30",
"P+ c #FCE32B",
"I+ c #E4CA2D",
"U+ c #D9C72B",
"Y+ c #F3EA27",
"T+ c None",
"R+ c #FFF24B",
"E+ c #FEE725",
"W+ c None",
"Q+ c None",
"!+ c #D0D925",
"~+ c #FEE724",
"^+ c #97B721",
"/+ c #FBD02C",
"(+ c #96B323",
")+ c #FACC2E",
"_+ c #97B923",
"`+ c #80AF21",
"'+ c #76A721",
"]+ c #6AA91D",
"[+ c #75AC1F",
"{+ c #73AD1F",
"}+ c #82B91F",
"|+ c #EFCB2E",
" @ c #74A821",
".@ c #D9C52A",
"X@ c #C4C526",
"o@ c #55A01D",
"O@ c #FFEE31",
"+@ c #FFEB23",
"@@ c #98BB20",
"#@ c #FEE725",
"$@ c #97B722",
"%@ c #FBD02D",
"&@ c #96B324",
"*@ c #80AD20",
"=@ c #FFE925",
"-@ c None",
";@ c #FEE52A",
":@ c #EFC92D",
">@ c None",
",@ c #95C320",
"<@ c #F9C831",
"1@ c #81B320",
"2@ c #CFC627",
"3@ c #6AA91E",
"4@ c #6BA420",
"5@ c #FCE12B",
"6@ c #E4C82D",
"7@ c #5EA21E",
"8@ c #98BF24",
"9@ c #C2BB29",
"0@ c #98C021",
"q@ c #FFFA25",
"w@ c #6AAB20",
"e@ c #A9B227",
"r@ c #A2B823",
"t@ c #FBCA2F",
"y@ c None",
"u@ c #96B123",
"i@ c #FFFB25",
"p@ c #95AD25",
"a@ c #FACA2E",
"s@ c #FFEB24",
"d@ c #F9C630",
"f@ c #8DAF23",
"g@ c #97B723",
"h@ c #A3C921",
"j@ c #80AD21",
"k@ c #F0CD2C",
"l@ c #E5CA2A",
"z@ c #75AA1F",
"x@ c #FACC30",
"c@ c #EEC530",
"v@ c None",
"b@ c #FDE52A",
"n@ c #E5CC2C",
"m@ c #FFF141",
"M@ c #E6DB28",
"N@ c #539F1D",
"B@ c #FAD12C",
"V@ c None",
"C@ c #ADBB26",
"Z@ c #A2B824",
"A@ c #FEE525",
"S@ c #97B522",
"D@ c #D0D726",
"F@ c #FBCE2D",
"G@ c #FDE127",
"H@ c #96B124",
"J@ c #FACA2F",
"K@ c #8AAA24",
"L@ c #F9C631",
"P@ c #E3C02D",
"I@ c None",
"U@ c #FFF626",
"Y@ c #93C220",
"T@ c #75AA20",
"R@ c #6AA71E",
"E@ c #FDE227",
"W@ c #FCDF2B",
"Q@ c #DFC22D",
"!@ c #E4C62D",
"~@ c #D9C32B",
"^@ c #69A320",
"/@ c #63A41E",
"(@ c #FFED27",
")@ c #FBDB2D",
"_@ c #FFF142",
"`@ c #FEF427",
"'@ c #A6B625",
"]@ c None",
"[@ c None",
"{@ c #FFE924",
"}@ c #FCDB28",
"|@ c #F9C430",
" # c None",
".# c #F8C032",
"X# c #80AB21",
"o# c #FACA30",
"O# c #74A421",
"+# c #EFC72E",
"@# c #7FA723",
"## c #D8BD2C",
"$# c None",
"%# c #FDE32A",
"&# c #D7B92E",
"*# c #5FA41D",
"=# c #F8C132",
"-# c #539D1D",
";# c #FFED28",
":# c #5EA01F",
"># c #FEE326",
",# c #CDBC2C",
"<# c #C2B92A",
"1# c #FFF826",
"2# c #F4F524",
"3# c #F9CB2E",
"4# c #ABAF28",
"5# c #FFF143",
"6# c #94C421",
/* pixels */
"                                                nO-@~Oi@YoJ u.OXOXu.J Yoi@^OW+nO                                                ",
"                                          R +XCodX2OZ+dXdXdXdXdXdXdXdXdXdXdXdXdXCo+XR                                           ",
"                                      m+c dXdXdXdX2OZ+dXdXdXdXdXdXdXdXdXdXdXdXdXdXdXdXc m+                                      ",
"                                  V@U@q@dXdXdXdXdX2OZ+dXdXdXdXdXdXdXdXdXdXdXdXdXdXdXdXdXdXu+>.                                  ",
"                              y@ OQ nov .odXdXdXdX2OZ+dXdXdXdXdXdXdXdXdXdXdXdXdXdXdXdXdXdXdXdXO.5.                              ",
"                          z.;@H+q.k+Q nov .odXdXdX2OZ+dXdXdXdXdXdXdXdXdXdXdXdXdXdXdXdXdXdXdXdXdXdX*O&X                          ",
"                        t.=o5@%#eXq.k+Q nov .odXdX2OZ+dXdXdXdXdXdXdXdXdXdXdXdXdXdXdXdXdXdXdXdXdXdXdXY.<O                        ",
"                      [ +O)@Po5@P+SX1+! }O6 dO.odXIX-+/ / / / / / / /OTX/ / / / / O+KOdXdXdXdXdXdXdXdXdX[O                      ",
"                    |OAOv.+O)@Po]XP+SX1+! }O6 Xo1#o xosososososososovoT.sososososo'O,@dXdXdXdXdXdXdXdXdXdXi@                    ",
"                  !o-oD+7.i+U coPo]XP+SX1+! }O6 Xo$+4XdXdXdXdXdXdXdXdXdXdXdXdXdXdXH.vXdXdXdXdXdXdXdXdXdXdXdX,                   ",
"                3oio<@-oD+7.i+U coh ]XpXb@R.HOM.=OB h@q@dXdXdXdXdXdXdXdXdXdXdXdXdXH.vXdXdXdXdXdXdXdXdXdXdXdXdXi@                ",
"              [@`oRO$ <@-oD+7.i+U coh ]XpXb@R.HOM.++% Toq@dXdXdXdXdXdXdXdXdXdXdXdXH.vXdXdXdXdXdXdXdXdXdXdXdXdXdX[O              ",
"            l+ZoF F RO$ ^Xo#8X;+|.MOcoh ]XpXb@R.HO!+'o`@Toq@dXdXdXdXdXdXdXdXdXdXdXH.vXdXdXdXdXdXdXdXdXdXdXdXdXdXdX<O            ",
"          poM+.#ZoF F RO$ ^Xo#(O;+|.MO< uOW@5@4oH+qocO=O`@Toq@dXdXdXdXdXdXdXdXdXdXH.vXdXdXdXdXdXdXdXdXdXdXdXdXdXdX<oRX          ",
"          6+)okOd.Zoy F d.e@| moE dodoj@nX`+ Xp+/X{+NOk+Q nov .odXdXdXdXdXdXdXdXdXH.vXdXdXdXdXdXdXdXdXdXdXdXdXdXdX2O6#          ",
"        @Xd@%o)oA ROZoy F O b YOQ@!@6@n@E.w.z+FO-OM@fOq.k+Q nov .odXdXdXdXdXdXdXdXH.vXdXdXdXdXdXdXdXdXdXdXdXdXdXdX2OZ+5.        ",
"        ~.7Od@%o)oA RO.#y ~o5 9OL@qXx@I.AOv.+O)@Po5@%#eXq.k+Q nov .odXdXdXdXdXdXdXH.0O2#2#2#2#2#2#2#2#Y@dXdXdXdXdX2OZ+BO        ",
"      y+J@+ 7Od@%o$ A RO.#O W & 9OL@qXx@I.AOmXnX`+ Xp+p+/X1@wXF+x.)On dXdXdXdXdXdXH.J+U.U.U.U.U.U.U.%Omo+.dXdXdXdX2OZ+dXD.      ",
"      3#zXJ@+ 7Od@%o$ A ROO HovO`o{ io<@-oI.8omomomomomomomomomomomom 1#q@dXdXdXdXH.vXdXdXdXdXdXdXdXdX}+2#dXdXdXdX2OZ+dXu+      ",
"    (XJ.)+zXJ@+ 7Od@%o$ A to&#ZovO`o{ io<@-o|+I+C@N@momomomoGX3O^.Y+6 Xo1#q@dXdXdXH.vXdXdXdXdXdXdXdXdX .2#dXdXdXdX2OZ+dXdXm+    ",
"    4OEX%+)+zXJ@+ 7Od@%o$ +o]O.#ZovO`o{ io<@-oD+7.gXmomomomo[.b@R.HOM.=OXo1#q@dXdXH.vXdXdXdXdXdXdXdXdX .2#dXdXdXdX2OZ+dXdXc     ",
"  rX_.%@EX%+)+zXJ@yo7Od@%op@Y RO.#ZovO`oRO$ ^X-oD+n.momomomo=.pXb@R.HOM.=O`@Toq@dXH.vXdXdXdXdXdXdXdXdX .2#dXdXdXdX2OZ+dXdXdXR   ",
"  :X<._./+EX'@'.zXJ@yo7Od@p@@O)oRO.#ZoF F RO$ ^Xo#BXmomomomoN.]XpXb@R.HOM.=O`@Toq@H.vXdXdXdXdXdXdXdXdX .2#dXdXdXdX2OZ+dXdXdX+X  ",
"  ko2X<.e+_.f@b.J.zXa@yo^oxX##|@)oRO.#ZoF F RO$ ^X- momomomow.uOW@5@4oH+q.M.=O`@To,@1 dXdXdXdXdXdXdXdX .2#dXdXdXdX2OZ+dXdXdXCo  ",
"tXp.0+2X<.e+#X<XF@J.)+zXyo. @.%o|@)okOd.Zoy F d.$ 1omomomomoE.< uOW@5@4oH+q.k+Q noQOAXdXdXdXdXdXdXdXdX .2#dXdXdXdX2OZ+dXdXdXdXnO",
"@oTOp.0+2XlOf+N+%@EXJ.)+zX. .O7Od@%o)oA ROZoy F & VOmomomomon@MO< uOW@5@4oH+q.k+Q nov .odXdXdXdXdXdXdX .2#dXdXdXdX2OZ+dXdXdXdXW+",
" +/oTOp.0+2XSON+_.%@EXJ.)+eo; + 7Od@%o)oA RO.#y F Jomomomomo6@AOv.+O)@Po5@g+eXq.k+Q nov .odXdXdXdXdXdX .2#dXdXdXdX2OZ+dXdXdXdXa+",
"k.@ /oTOp.0+2@F.e+_.%@EXJ.eoloJ@+ 7Od@%o$ A RO.#Zo..momomomo!@I.AOv.+O)@Po5@P+SX1+! }O6 HX.odXdXdXdXdX .2#dXdXdXdX2OZ+dXdXdXdXi@",
"B+UO@ /oTOp.yXZ@lOe+_.%@EXu@~@zXJ@+ 7Od@P@;o;oO#O#O#momomomo^@VX @$XfoT@9oPo]XP+SX1+! }O6 Xo1#q@dXdXdX .2#dXdXdXdX2OZ+dXdXdXdXYo",
";O5OUO@ /o` K+r@2XlOe+_.%@jXCX)+zXJ@+ 7O)XmomomomomomomomomomomomomomomoLOcoPo]XpXSX1+! }O6 Xo1#q@dXdX .2#dXdXdXdX2OZ+dXdXdXdXJ ",
"# X 5OUO@ /oW.hX0+2XlOf._.jX.@%+)+zXJ@+ 7O2o##@OY 2+momomomoe.2 |XIo[XU+uXU coh ]XpXb@R.HOM.=OXo1#q@dX .2#dXdXdXdX2OZ+dXdXdXdXu.",
"k G@X 5O_ UO#.v+p.0+/.lOf.(+%XEX%+)+zXJ@yo7Od@%o$ qOmomomomof RO$ ^X-oD+7.i+U coh ]XpXb@R.HOM.=O`@Toq@ .2#dXdXdXdX2OZ+dXdXdXdXOX",
">#1OG@ro5O_ G+A.V TOp.0+2X(+:+/+EX%+)+zXJ@yo7Od@%oa momomomof F RO$ ^Xo#8X;+|.MOcoh ]XpXb@R.HOM.3X`@To .2#dXdXdXdX2OZ+dXdXdXdXOX",
"u r 1OG@roi G+A.@ V TOp.0+BoX.e+_.%@F@J.:o8o8o8o8o8omomomomomo-#-#-#8o8oj 8X;+|.MO< uOW@5@4oH+NOmo*XQ.aO3+3+3+3+3+=XDXdXdXdXdXu.",
"$.A@r 1OG@ro,+@+UO@ /oX@p.S@.X<.e+_.%@F@9Xmomomomomomomomomomomomomomomo,#o#8X;+|.MO< uOW@5@4oH+2.k+Q nov .odXdXdX2OZ+dXdXdXdXJ ",
"h+3@3@_X_X_X#O*#R@R@o@mo&O-X/@KoKog :+%@EXJ.)+zXyop momomomowOROZoy F & 9OL@{.x@I.rOMO< uOW@5@4oH+q.k+Q nov .odXdXXXxodXdXdXdXYo",
"XO#@UXA@r 1OG@roi _ UOoo/oYX6.0+2XlOe+_.%@EXJ.)+zX+#momomomos A RO.#y F & 9OL@qXx@I.AOv.+O)@Po5@g+eXq.k+Q nov .odXtO=XdXdXdXdXi@",
"aXq+#@UXA@r 1OG@roi _ UO@ $@COp.0+2XlOe+_.%@EXJ.)+QXmomomomoP@$ A RO.#ZovO& 9OL@qX!@6@AOv.+O)@Po5@P+SX1+! }O6 HX.o2OZ+dXdXdXdX^O",
"7+#oq+#@UXA@Vo1OG@roi 5OUO$@T TOp.0+2XlOe+_.%@EXJ.:@momomomo)X%o$ A RO.#ZovO`o{ Domomo6@AOv.+O)@Po]XP+SX1+! }O6 Xo$+4XdXdXdXdXW+",
"$#s@KX{@~+UXA@Vo1OG@roi 5O^+$O/o` p.0+2XlOe+_.%@EX].momomomomOd@%o$ A RO.#ZovO`o%.momozoD+7.i+U coPo]XpXSX1+! }O6 B h@q@dXdXdXnO",
"  S.cX+@{@(.#@A@wo1O( roX ).c.@ /o` p.0+2XlOf._.%@&omomomomoK 7Od@%o$ A RO.#ZovORomomoc@-oD+7.i+U coh ]XpXb@R.HOM.++go1#q@dXCo  ",
"  M ;#cX+@{@(.#@UXwor 1OG@w+_O_ UO@ V p.0+/.lOf._.k@momomomo: yo7Od@%o$ A RO.#ZoC momoa ^X-oD+7.i+U coh ]XpXb@R.HO!+'o`@Toq@+X  ",
"  MX=+;#cX+@#o(.#@UXwor 1Oa.oO5O_ UO@ V TOp.0+2X<.l@momomomo:oJ@yo7Od@%o$ )oRO.#UomomoRO$ ^Xo#8X;+|.MOcoh ]XpXb@R.D@cO=O`@ToR   ",
"    ,.=+7 cX+@#o(.#@UXA@r LX> roi _ UO@ V TOp.0+2Xj+momomomo9XzXa@yo^od@%o|@)oX+momomoF RO$ ,#'+bOJX,Xy.^ o+:O8 PO3.Fo!+++A+    ",
"    #+$os+7 cX+@#o(.#@UXA@LX!OG@roi _ UO@ /oK.bXyX7@momomomoWox+x+;X9@ o<#9 !Xmomomo-#y F .#p@B.8.H@WX&@r+g.g@_+[.ZX5oL t+0@    ",
"      iO$os+N ~X+@#o(.#@UX@@!O1OG@roi _ UO@ N@momomomomomomomomomomomomomomomomomomo:#.#y F & -.<#qXx@I.rOMO< uOW@8 ' H+eO      ",
"      T+4+uoL+N ~X+@#o(.#@1X]or 1OG@roi _ UOh.S+5X5X*@j@j@*o*o*oX#X#[o[o[oG G !X!X@#K@RO.#y F MoJOL@qXx@I.AOv.+O)@;.&+g+~       ",
"        j.4+SoL+) >o+@#oq+1X* A@r 1OG@roi _ UO@ /oTOp.0+2XlOe+_.%@EXJ.)+zXJ@+ 7Od@%o$ A RO.#Zo>OEo9OL@qXx@I.AOv.+Ow C+EO        ",
"        v@6oV+SoO@) >o+@#o8+hoUXA@Vo1OG@roi 5OUO@ /oTOp.0+2XlOe+_.%@EXJ.)+zXJ@+ 7Od@%o$ A RO.#4#gO`o{ io<@-oI.AOv.^ S kX        ",
"          lXm@G.OO>XzO(@s@i.} ~+UXA@Vo1OG@roi 5OUO@ /o` p.0+2XlOe+_.%@EXJ.)+zXJ@+ 7Od@%o$ A RO0obovO`o{ io<@-oD+7.b+7o          ",
"          I@(o_@`.OOfXzO(@i.d {@(.#@A@wo1O( roX 5OUO@ /o*+{o0+2XlOf._.%@EX%+)+zXJ@+ 7Od@%o$ A X+boZovO`o{ io<@-oD+,OP           ",
"            s.`O_@`.pOfXWOt+Go+@{@(.#@UXwor 1OG@X 5O_ UOl moxO0+/.L.f._.%@EX%+)+zXJ@yo7Od@%o$ -.r..#ZovO`oRO$ ^X-o{O            ",
"              Q+<+5#6XGOPX8@:.cX+@#o(.#@UXwor 1OG@ro5O_ FX6OV TOp.z@2X<._./+EX%+)+zXJ@yo7Od@%ojOsORO.#ZoF F RO$  #              ",
"                Lo<+5#6XGOn+`X7 cX+@#o(.#@UXA@r 1OG@roi &.A.@ V TOz@0+2X<.e+_.%@F@J.)+a@yo^od@9 z )oRO.#ZoF F =#                ",
"                  1.c+e }omo0 w@iXoXoXoX]+3@3@3@_X_X_X_X#ODOR@R@R@m.p.0+2X<.e+_.%@F@J.)+zXyo+ }.<#|@)okOd.Zo5+                  ",
"                    Loc+Z }o.+$os+N ~X+@#o(.#@UXA@r 1OG@roi _ UO@ N@z@z@z@fofofo= = = 0X0X0X4@mo| d@%o)oA =#                    ",
"                      >@R+Z 'X4+uoL+N ~X+@#o(.#@UXA@r 1OG@roi _ UONX/oTOp.0+2XlOe+_.%@EXJ.)+zX{X+ 7Od@%oIO                      ",
"                        V.C.] 'X4+SoL+) >o+@#oq+#@UXA@r 1OG@roi _ NX@ /oTOp.0+2XlOe+_.%@EXJ.)+zXJ@+ No,o                        ",
"                          I@hO8Om@V+SoO@) >o+@#oq+#@UXA@Vo1OG@roi [+UO@ /oTOp.0+2XlOe+_.%@EXJ.)+zXt@3                           ",
"                              4.Oom@G.OO>XzO(@s@KX{@~+UXA@Vo1OG@ro*.5OUO@ /o` p.0+2XlOe+_.%@EXq |o                              ",
"                                  x 7X`.OOfXWO(@cX+@{@(.#@A@wo1O9+mo9.5OUO}@/o` p.0+2XlOf.B@ao                                  ",
"                                      ]@AopOfXWO;#cX+@{@(.#@UXwor 4 G@X 5O_ UO@ V p.0+D I                                       ",
"                                          o._oH =+;#cX+@#o(.#@UXwoP.1OG@ro5O_ UO>+Z.rX                                          ",
"                                                $#ZOjo}XQo0.=@E+sXyOd+t E@!.l.tX                                                "
};
