<?xml version="1.0" encoding="utf-8"?>
<!-- Designer: Lyncoin Developers
  	 License: MIT
  	 Font used: Noto Serif
-->
<svg version="1.1" id="Layer_1" xmlns="http://www.w3.org/2000/svg" xmlns:xlink="http://www.w3.org/1999/xlink" x="0px" y="0px"
	 width="600px" height="600px" viewBox="0 0 600 600" style="enable-background:new 0 0 600 600;" xml:space="preserve">
    <linearGradient id="A" gradientUnits="userSpaceOnUse" x1="43.052" y1="582.693" x2="562.882" y2="10.778">
        <stop offset="0" stop-color="#fff"/>
        <stop offset="0" stop-color="#ffff9b"/>
        <stop offset=".179" stop-color="#ffec23"/>
        <stop offset=".483" stop-color="#f8bd33"/>
        <stop offset=".649" stop-color="#fffb25"/>
    </linearGradient>
    <circle cx="300" cy="300" r="296.3" fill="url(#A)"/>
    <g fill="#489b1c">
        <path d="M339 282.9h-56.7v26.6H339v17.9h-56.7V417h63.6c9.1 0 16.5-2.8 22.2-8.5 5.8-5.6 9.5-14.3 11.3-26l3.9-28.5H403l-2.6 81.9H207.7v-16h4.8c11.9 0 20.1-2.2 24.6-6.7s6.7-11.3 6.7-20.6v-65.3h-46.9v-17.9h46.9v-26.6h-46.9v-18h46.9v-57.5c0-9.3-2.2-16.2-6.7-20.6s-12.7-6.7-24.6-6.7h-4.8v-16h110.9v16h-5c-12 0-20.2 2.2-24.6 6.6s-6.6 10.8-6.6 19.3v59H339v18z"/>
        <circle cx="149.6" cy="140" r="9.7"/>
        <circle cx="69.3" cy="216.9" r="9.7"/>
        <circle cx="108.8" cy="333.2" r="9.7"/>
        <circle cx="451.6" cy="313.8" r="9.7"/>
        <circle cx="393.4" cy="226.6" r="9.7"/>
        <circle cx="482.4" cy="164" r="9.7"/>
        <circle cx="325.9" cy="79.3" r="9.7"/>
        <circle cx="541.6" cy="337.8" r="9.7"/>
        <circle cx="447.4" cy="412.3" r="9.7"/>
        <circle cx="445.7" cy="516.7" r="9.7"/>
        <circle cx="272.9" cy="481.3" r="9.7"/>
        <circle cx="132.1" cy="507" r="9.7"/>
        <circle cx="313" cy="562.8" r="9.7"/>
        <path d="M309.5 483.5h6.9v112.8h-6.9zM65.8 215.3h6.9v117.9h-6.9zm378.1 189.3h6.9v112.8h-6.9zm35-244.1h6.9v153.3h-6.9zm-82.549 66.033h-6.9v-151h6.9zM128.1 136.2h6.9v374.5h-6.9zm141.1 337.1h7.4V507h-7.4z"/>
        <path d="M447.346 513.65v7.4h-138.1v-7.4zm-131.088-10.308v7.4h-176.4v-7.4zm233.185-193.279v7.4h-102.1v-7.4zM396.67 75.587v7.4h-154.9v-7.4zm-147.113 60.687v7.5h-118v-7.5zm238.256 23.984v7.4h-94v-7.4zM172.4 336.9v-7.4H5.2l.8 7.4h166.4z"/>
        <path d="M538.1 473.3h2.6l4.3-6.1V132.8l-5.5-7.8h-1.4v348.3zM248.6 143.1V8.2l-6.9 1.3v133.6h6.9z"/>
        <path d="M429.4 416h143.3l3-7.4H429.4v7.4z"/>
    </g>
</svg>